<svg xmlns="http://www.w3.org/2000/svg" fill="none" viewBox="0 0 925 163"><defs/><g clip-path="url(#clip0)"><path fill="#00C3F7" d="M131.5 15.5H7.7C3.5 15.5 0 19 0 23.2V37c0 4.3 3.5 7.7 7.7 7.7h123.8c4.3 0 7.7-3.5 7.8-7.7V23.3c0-4.3-3.5-7.8-7.8-7.8zM131.5 92.3H7.7A7.7 7.7 0 000 100v13.8c0 4.3 3.5 7.7 7.7 7.7h123.8c4.3 0 7.7-3.4 7.8-7.7V100c0-4.3-3.5-7.7-7.8-7.7zM77.4 130.6H7.7a7.7 7.7 0 00-7.7 7.7v13.8c0 4.3 3.5 7.7 7.7 7.7h69.6c4.3 0 7.7-3.5 7.7-7.7v-13.8c.1-4.2-3.3-7.7-7.6-7.7zM139.3 53.9H7.7A7.7 7.7 0 000 61.6v13.8c0 4.3 3.5 7.7 7.7 7.7h131.5c4.3 0 7.7-3.5 7.7-7.7V61.6c.1-4.2-3.4-7.7-7.6-7.7z"/><path fill="#011B33" d="M283.4 46.6c-3.8-3.9-8.4-7-13.4-9.1-5.1-2.1-10.5-3.2-16-3.2-5.4-.1-10.7 1-15.5 3.3a28.1 28.1 0 00-8.6 6.3v-2.4c0-1.2-.5-2.4-1.3-3.3-.8-1-2.1-1.5-3.3-1.5H208c-1.3 0-2.5.5-3.3 1.5-.9.9-1.3 2.1-1.3 3.3v113.9c0 1.2.5 2.4 1.3 3.3.9.9 2.1 1.3 3.3 1.3h17.5c1.2 0 2.3-.5 3.2-1.3.9-.8 1.5-2 1.4-3.3v-38.9c2.5 2.7 5.7 4.7 9.2 5.9 4.6 1.7 9.4 2.5 14.3 2.5 5.6 0 11.1-1 16.2-3.2 5.1-2.1 9.7-5.2 13.6-9.2 4-4.1 7.1-9 9.2-14.3 2.4-6 3.5-12.3 3.4-18.7.1-6.4-1.1-12.8-3.4-18.8-2.1-5.2-5.3-10-9.2-14.1zm-15.8 41.2c-.9 2.4-2.3 4.6-4.1 6.5-3.6 3.8-8.7 6-13.9 5.9-2.7 0-5.3-.5-7.7-1.6-2.4-1-4.5-2.5-6.3-4.3-1.8-1.9-3.2-4.1-4.2-6.5-2-5.1-2-10.9 0-16 .9-2.4 2.4-4.6 4.2-6.4 1.8-1.9 4-3.3 6.3-4.4 2.4-1.1 5.1-1.7 7.7-1.6 2.7 0 5.3.5 7.8 1.6 2.3 1.1 4.4 2.5 6.2 4.3 1.8 1.9 3.1 4 4.1 6.4 1.9 5.2 1.9 10.9-.1 16.1zM390.2 36.7h-17.4c-1.2 0-2.4.5-3.2 1.4-.9.9-1.4 2.1-1.4 3.4v2.1c-2.2-2.5-4.9-4.6-7.9-6-4.8-2.3-10-3.4-15.2-3.3-11.2 0-21.9 4.4-29.9 12.2-4.1 4.1-7.3 8.9-9.6 14.3a46.3 46.3 0 00-3.6 18.8c-.1 6.4 1.1 12.8 3.6 18.8 2.2 5.3 5.5 10.2 9.5 14.3 7.9 8 18.6 12.4 29.8 12.3 5.3.1 10.5-1 15.3-3.3 3-1.5 5.8-3.5 8-6v2.3c0 1.2.5 2.4 1.4 3.3.9.8 2 1.3 3.2 1.3h17.4c1.2 0 2.4-.5 3.3-1.3.9-.9 1.3-2 1.3-3.3V41.5c0-1.2-.4-2.4-1.3-3.3-.8-1-2-1.5-3.3-1.5zm-23.5 51c-.9 2.4-2.3 4.6-4.1 6.5-1.8 1.8-3.9 3.3-6.2 4.4-4.9 2.2-10.6 2.2-15.5 0-2.3-1.1-4.5-2.5-6.3-4.4-1.8-1.9-3.2-4.1-4.1-6.5-1.9-5.1-1.9-10.8 0-15.9.9-2.4 2.3-4.5 4.1-6.4 1.8-1.8 3.9-3.3 6.3-4.4 4.9-2.2 10.6-2.2 15.5 0 2.3 1.1 4.4 2.5 6.2 4.3 1.7 1.9 3.1 4 4.1 6.4 2 5.2 2 10.9 0 16zM563.7 77.4a28.3 28.3 0 00-8.5-5.1c-3.3-1.3-6.7-2.3-10.2-3l-13.3-2.6c-3.4-.6-5.8-1.5-7.1-2.6-1.1-.8-1.8-2-1.8-3.3 0-1.4.8-2.6 2.5-3.6 2.3-1.2 4.8-1.8 7.4-1.6 3.4 0 6.8.7 9.9 2 3 1.3 6 2.8 8.7 4.6 3.9 2.4 7.2 2 9.5-.7l6.4-7.2c1.2-1.2 1.9-2.8 2-4.5-.1-1.8-1-3.4-2.4-4.5-2.7-2.3-7-4.8-12.7-7.2-5.7-2.4-12.9-3.7-21.4-3.7-5.2-.1-10.3.7-15.3 2.2-4.2 1.3-8.2 3.3-11.7 6-3.1 2.4-5.7 5.5-7.5 9.1-1.7 3.5-2.6 7.3-2.6 11.1 0 7.1 2.2 12.9 6.5 17.2 4.3 4.3 10 7.1 17.1 8.5l13.8 3c3 .5 6 1.4 8.8 2.7 1.5.6 2.5 2.1 2.5 3.8 0 1.5-.8 2.9-2.5 4.1-1.7 1.2-4.5 2-8.1 2-3.8.1-7.5-.8-10.9-2.4-3.2-1.5-6.2-3.5-8.9-5.8-1.2-1-2.5-1.7-4-2.2-1.6-.5-3.5 0-5.6 1.7l-7.6 5.7a6.6 6.6 0 00-2.7 6.6c.4 2.5 2.5 5 6.4 7.9 9.6 6.4 20.9 9.7 32.5 9.5 5.4.1 10.7-.7 15.9-2.2 4.4-1.3 8.6-3.4 12.3-6.1 3.3-2.5 6.1-5.7 8-9.4 1.8-3.6 2.8-7.6 2.8-11.7.1-3.7-.7-7.3-2.2-10.6-1.6-3-3.6-5.6-6-7.7zM639.7 98.2c-.8-1.4-2.2-2.3-3.8-2.5-1.6 0-3.2.5-4.5 1.4a14.44 14.44 0 01-7.1 2.3c-.8 0-1.7-.1-2.5-.3-.9-.2-1.7-.6-2.3-1.2-.8-.7-1.4-1.6-1.9-2.6-.6-1.5-.8-3-.8-4.6V59.5h22.6c1.3 0 2.6-.6 3.5-1.5.9-.8 1.5-2 1.5-3.3V41.5c0-1.3-.5-2.5-1.5-3.4-.9-.9-2.2-1.4-3.4-1.4h-22.6V15.4c.1-1.3-.5-2.6-1.4-3.4-.9-.8-2-1.3-3.2-1.3h-17.6c-1.2 0-2.5.4-3.4 1.3-.9.9-1.5 2.1-1.5 3.4v21.3h-10c-1.3 0-2.5.5-3.3 1.5-.8.9-1.3 2.1-1.3 3.3v13.2c0 1.2.5 2.4 1.3 3.3.8 1 2 1.6 3.3 1.5h10v37.1c-.1 4.4.8 8.8 2.6 12.8 1.6 3.3 3.9 6.2 6.7 8.6 2.8 2.3 6.1 3.9 9.5 4.9 3.5 1.1 7.2 1.6 10.9 1.6 4.9 0 9.7-.8 14.3-2.3 4.3-1.4 8.1-3.8 11.3-7 2-2 2.2-5.1.6-7.4l-6-9.6zM735 36.7h-17.4c-1.2 0-2.4.5-3.2 1.4-.9.9-1.4 2.1-1.4 3.4v2.1c-2.2-2.5-4.9-4.6-7.9-6-4.8-2.3-10-3.4-15.3-3.3A42.4 42.4 0 00660 46.5c-4.1 4.1-7.4 8.9-9.6 14.3-2.5 5.9-3.7 12.3-3.6 18.7-.1 6.4 1.1 12.8 3.6 18.8 2.2 5.3 5.5 10.2 9.5 14.3 7.8 8 18.6 12.4 29.7 12.4 5.3.1 10.5-1 15.3-3.2 3-1.5 5.8-3.5 8-6v2.2a4.63 4.63 0 004.6 4.6H735c2.5 0 4.6-2 4.6-4.5V41.5c0-1.2-.4-2.4-1.3-3.3-.8-1-2-1.5-3.3-1.5zm-23.5 51c-.9 2.4-2.3 4.6-4.1 6.5-1.8 1.8-3.9 3.3-6.2 4.4-2.4 1.1-5.1 1.7-7.8 1.6-2.7 0-5.3-.6-7.7-1.6-2.3-1.1-4.5-2.5-6.3-4.4-1.8-1.9-3.2-4.1-4.1-6.5-1.9-5.1-1.9-10.8 0-15.9.9-2.4 2.3-4.5 4.1-6.4 1.8-1.8 3.9-3.3 6.3-4.4 2.4-1.1 5-1.6 7.7-1.6s5.3.5 7.8 1.6c2.3 1.1 4.4 2.5 6.2 4.3 1.8 1.9 3.2 4 4.1 6.4a21.1 21.1 0 010 16zM830.5 97.1l-10-7.6c-1.9-1.5-3.7-1.9-5.3-1.3-1.4.6-2.7 1.5-3.7 2.6-2.2 2.6-4.7 4.9-7.6 6.8-3 1.7-6.3 2.5-9.7 2.3a18.79 18.79 0 01-17.9-12.4c-.9-2.5-1.4-5.2-1.4-7.8 0-2.7.4-5.4 1.4-8 .9-2.4 2.2-4.6 4-6.4 1.8-1.8 3.9-3.3 6.2-4.3 2.4-1.1 5.1-1.7 7.8-1.7 3.4-.1 6.8.7 9.7 2.4 2.9 1.9 5.4 4.1 7.6 6.8 1 1.1 2.2 2 3.6 2.6 1.6.6 3.4.2 5.2-1.3l10-7.5c1.2-.8 2.2-2 2.6-3.4.6-1.5.4-3.2-.4-4.6-3.9-6-9.2-10.9-15.4-14.3-6.6-3.7-14.5-5.6-23.3-5.6-6.2 0-12.4 1.2-18.1 3.5-5.5 2.2-10.5 5.5-14.7 9.6-4.2 4.1-7.6 9-9.8 14.4a46.96 46.96 0 000 35.7c2.3 5.4 5.6 10.3 9.8 14.3a46.7 46.7 0 0032.8 13.1c8.8 0 16.7-1.9 23.3-5.6 6.3-3.4 11.6-8.4 15.5-14.4.8-1.4 1-3 .4-4.5a6.8 6.8 0 00-2.6-3.4zM923.1 114.9L895.6 75l23.5-30.7c1.1-1.4 1.5-3.3 1-5-.4-1.2-1.5-2.5-4.4-2.5h-18.6c-1.1 0-2.1.3-3.1.7-1.2.6-2.1 1.5-2.7 2.6l-18.8 26H868V4.6c0-1.2-.4-2.4-1.3-3.3a4.6 4.6 0 00-3.3-1.3H846c-1.2 0-2.4.5-3.3 1.3-.9.8-1.5 2.1-1.4 3.3V118c0 1.3.5 2.5 1.4 3.3.9.9 2.1 1.3 3.3 1.3h17.4c1.2 0 2.4-.5 3.3-1.3.9-.9 1.3-2.1 1.3-3.3V88h5l20.5 31.1c1.2 2.2 3.5 3.6 6 3.6H919c3 0 4.2-1.4 4.7-2.6.7-1.7.5-3.7-.6-5.2zM489.1 36.7h-19.5c-1.5-.1-2.9.5-3.9 1.5-.9.9-1.5 2-1.8 3.2l-14.4 53H446l-15.4-53c-.3-1.1-.8-2.2-1.5-3.1-.8-1-2.1-1.6-3.5-1.6h-20.2c-2.6 0-4.2.8-4.9 2.5-.5 1.5-.5 3.2 0 4.7l24.7 74.5c.4 1.1 1 2.2 1.9 3 1 .9 2.3 1.4 3.7 1.3h10.4l-.9 2.4-2.3 6.9c-.7 2.1-2 4-3.8 5.4a9.39 9.39 0 01-5.8 1.9c-1.8 0-3.6-.4-5.2-1.1-1.6-.7-3.2-1.6-4.6-2.7-1.3-.9-2.8-1.4-4.4-1.4h-.2a5.4 5.4 0 00-4.4 2.7l-6.2 9c-2.5 3.9-1.1 6.4.5 7.8 3.3 3 7.2 5.3 11.5 6.7 4.7 1.6 9.7 2.4 14.7 2.4 8.9 0 16.4-2.4 22.1-7.2 5.9-5.1 10.3-11.9 12.5-19.4l28.6-92.2c.6-1.6.7-3.3.1-4.9-.5-1.1-1.6-2.3-4.3-2.3z"/></g><defs><clipPath id="clip0"><path fill="#fff" d="M0 0h924.1v162.6H0z"/></clipPath></defs></svg>